<?xml version="1.0" standalone="no"?>
<!DOCTYPE svg PUBLIC "-//W3C//DTD SVG 20010904//EN"
 "http://www.w3.org/TR/2001/REC-SVG-20010904/DTD/svg10.dtd">
<svg version="1.0" xmlns="http://www.w3.org/2000/svg"
 width="260.000000pt" height="260.000000pt" viewBox="0 0 260.000000 260.000000"
 preserveAspectRatio="xMidYMid meet">
<metadata>
Created by potrace 1.14, written by Peter Selinger 2001-2017
</metadata>
<g transform="translate(0.000000,260.000000) scale(0.100000,-0.100000)"
fill="#000000" stroke="none">
<path d="M63 2578 c-68 -49 -63 49 -63 -1278 0 -1330 -5 -1231 64 -1278 l32
-22 1208 0 1209 0 43 44 44 43 0 1213 0 1213 -44 43 -43 44 -1209 0 -1209 0
-32 -22z m1399 -455 l3 -228 168 -3 c150 -2 167 -4 167 -20 0 -9 11 -97 24
-194 l23 -178 -194 0 -193 0 0 -427 c0 -265 4 -442 10 -465 7 -24 24 -48 47
-65 36 -27 40 -28 190 -31 l153 -4 0 -178 0 -178 -42 -6 c-90 -13 -361 -8
-422 9 -158 42 -256 135 -319 301 -21 57 -22 72 -27 549 l-5 490 -167 3 -168
2 0 195 0 195 170 0 170 0 0 230 0 230 205 0 205 0 2 -227z"/>
</g>
</svg>
